<svg width="1053" height="385" xmlns="http://www.w3.org/2000/svg" xmlns:xlink="http://www.w3.org/1999/xlink" xml:space="preserve" overflow="hidden"><g transform="translate(-571 -247)"><path d="M733.791 458.538C835.873 442.542 937.955 426.546 990.498 435.243 1043.04 443.94 1039.14 488.492 1049.05 510.719" stroke="#172C51" stroke-width="20.625" stroke-linecap="round" stroke-miterlimit="8" fill="none" fill-rule="evenodd"/><path d="M1181.6 568.901C1283.68 552.905 1213.88 585.035 1266.43 593.731 1318.97 602.428 1486.94 598.855 1496.86 621.082" stroke="#172C51" stroke-width="20.625" stroke-linecap="round" stroke-miterlimit="8" fill="none" fill-rule="evenodd"/><path d="M1212.84 490.388C1268.75 477.715 1284.43 482.406 1312.48 484.67 1340.53 486.934 1385.7 451.386 1390.12 462.497" stroke="#009999" stroke-width="20.625" stroke-linecap="round" stroke-miterlimit="8" fill="none" fill-rule="evenodd"/><path d="M932 535C932 522.297 942.073 512 954.5 512 966.926 512 977 522.297 977 535 977 547.702 966.926 558 954.5 558 942.073 558 932 547.702 932 535Z" fill="#FF7C80" fill-rule="evenodd"/><path d="M1453 514C1453 501.297 1463.07 491 1475.5 491 1487.93 491 1498 501.297 1498 514 1498 526.702 1487.93 537 1475.5 537 1463.07 537 1453 526.702 1453 514Z" fill="#FFD966" fill-rule="evenodd"/><path d="M603 372C603 359.297 613.297 349 626 349 638.703 349 649 359.297 649 372 649 384.703 638.703 395 626 395 613.297 395 603 384.703 603 372Z" fill="#4472C4" fill-rule="evenodd"/><path d="M923.534 387.379C957.465 384.579 967.847 389.439 985.779 393.937 1003.71 398.436 985.463 387.733 989.414 395.804" stroke="#ED7D31" stroke-width="20.625" stroke-linecap="round" stroke-miterlimit="8" fill="none" fill-rule="evenodd"/><path d="M1337.37 399.043C1394.68 400.289 1408.75 408.637 1435.42 417.628 1462.09 426.618 1514.53 403.07 1516.12 414.918" stroke="#009999" stroke-width="20.625" stroke-linecap="round" stroke-miterlimit="8" fill="none" fill-rule="evenodd"/><path d="M784.402 363.596C841.038 340.16 855.044 340.551 881.497 336.073 907.95 331.596 884.593 328.05 886.305 336.428" stroke="#70AD47" stroke-width="20.625" stroke-linecap="round" stroke-miterlimit="8" fill="none" fill-rule="evenodd"/><path d="M581.5 281.685C822.3 290.61 1063.1 299.535 1235.1 295.504 1407.1 291.474 1510.3 274.487 1613.5 257.5" stroke="#8497B0" stroke-width="20.625" stroke-linecap="round" stroke-miterlimit="8" fill="none" fill-rule="evenodd"/></g></svg>