<svg enable-background="new 0 0 511.999 511.999" viewBox="0 0 511.999 511.999" xmlns="http://www.w3.org/2000/svg"><g fill="#2ba5f7"><path d="m469.015 221.986c-5.171 0-9.362-4.192-9.362-9.362v-10.998c0-5.171 4.192-9.362 9.362-9.362 5.171 0 9.362 4.192 9.362 9.362v10.998c0 5.17-4.192 9.362-9.362 9.362z"/><path d="m469.015 278.232c-5.171 0-9.362-4.192-9.362-9.362v-10.998c0-5.171 4.192-9.362 9.362-9.362 5.171 0 9.362 4.192 9.362 9.362v10.998c0 5.17-4.192 9.362-9.362 9.362z"/><path d="m502.637 244.611h-10.998c-5.171 0-9.362-4.192-9.362-9.362s4.192-9.362 9.362-9.362h10.998c5.171 0 9.362 4.192 9.362 9.362s-4.191 9.362-9.362 9.362z"/><path d="m446.39 244.611h-10.998c-5.171 0-9.362-4.192-9.362-9.362s4.192-9.362 9.362-9.362h10.998c5.171 0 9.362 4.192 9.362 9.362s-4.191 9.362-9.362 9.362z"/><path d="m392.82 42.763c-5.171 0-9.362-4.192-9.362-9.362v-8.466c0-5.171 4.192-9.362 9.362-9.362 5.171 0 9.362 4.192 9.362 9.362v8.466c.001 5.17-4.191 9.362-9.362 9.362z"/><path d="m392.82 86.06c-5.171 0-9.362-4.192-9.362-9.362v-8.465c0-5.171 4.192-9.362 9.362-9.362 5.171 0 9.362 4.192 9.362 9.362v8.466c.001 5.17-4.191 9.361-9.362 9.361z"/><path d="m418.703 60.18h-8.466c-5.171 0-9.362-4.192-9.362-9.362s4.192-9.362 9.362-9.362h8.466c5.171 0 9.362 4.192 9.362 9.362s-4.192 9.362-9.362 9.362z"/><path d="m375.405 60.18h-8.466c-5.171 0-9.362-4.192-9.362-9.362s4.192-9.362 9.362-9.362h8.466c5.171 0 9.362 4.192 9.362 9.362s-4.191 9.362-9.362 9.362z"/></g><path d="m482.56 131.778c-14.765 0-26.778-12.013-26.778-26.778 0-14.766 12.013-26.779 26.778-26.779 14.766 0 26.779 12.013 26.779 26.779 0 14.764-12.012 26.778-26.779 26.778zm0-34.832c-4.44 0-8.053 3.613-8.053 8.054 0 4.44 3.613 8.053 8.053 8.053 4.442 0 8.054-3.613 8.054-8.053.001-4.441-3.612-8.054-8.054-8.054z" fill="#cc1b5b"/><path d="m273.57 85.69c-14.766 0-26.779-12.013-26.779-26.779 0-14.765 12.013-26.778 26.779-26.778 14.765 0 26.778 12.013 26.778 26.778 0 14.767-12.013 26.779-26.778 26.779zm0-34.831c-4.441 0-8.054 3.613-8.054 8.053 0 4.442 3.613 8.054 8.054 8.054 4.44 0 8.053-3.613 8.053-8.054s-3.613-8.053-8.053-8.053z" fill="#f7b239"/><circle cx="169.633" cy="143.119" fill="#f7b239" r="9.362"/><circle cx="261.384" cy="116.904" fill="#cc1b5b" r="9.362"/><circle cx="373.72" cy="137.502" fill="#2ba5f7" r="9.362"/><circle cx="373.72" cy="334.111" fill="#f7b239" r="9.362"/><path d="m308.795 142.436c-1.698 0-3.415-.462-4.961-1.429-4.383-2.744-5.71-8.522-2.965-12.904 10.007-15.975 18.333-31.607 24.747-46.461 2.05-4.746 7.557-6.934 12.307-4.883 4.747 2.05 6.933 7.56 4.883 12.307-6.79 15.721-15.56 32.2-26.067 48.976-1.777 2.838-4.826 4.394-7.944 4.394z" fill="#cc1b5b"/><path d="m221.002 249.875c-2.497 0-4.987-.992-6.83-2.957-3.538-3.771-3.349-9.696.421-13.233.313-.295 31.737-29.933 63.095-71.879 3.096-4.141 8.962-4.988 13.105-1.892 4.141 3.096 4.99 8.963 1.892 13.105-32.396 43.334-63.954 73.079-65.282 74.325-1.806 1.692-4.105 2.531-6.401 2.531z" fill="#2ba5f7"/><path d="m281.737 259.778c-2.542 0-5.074-1.029-6.922-3.056-3.483-3.821-3.209-9.743.613-13.226 32.12-29.279 95.742-81.262 160.935-100.448 4.961-1.461 10.165 1.378 11.626 6.338s-1.378 10.165-6.338 11.626c-61.593 18.127-122.678 68.131-153.609 96.325-1.795 1.634-4.054 2.441-6.305 2.441z" fill="#f7b239"/><path d="m293.343 322.198c-2.763 0-5.499-1.216-7.345-3.548-3.206-4.048-2.535-9.923 1.508-13.135 2.317-1.841 57.595-44.928 132.112-30.6 5.077.976 8.402 5.885 7.426 10.963-.976 5.077-5.883 8.401-10.963 7.426-65.85-12.663-116.433 26.484-116.937 26.881-1.72 1.354-3.768 2.013-5.801 2.013z" fill="#cc1b5b"/><path d="m200.296 193.862c-1.412 0-2.846-.321-4.194-.997-4.621-2.321-6.485-7.948-4.166-12.568 10.924-21.754 22.315-56.172 14.54-96.596-.976-5.078 2.348-9.987 7.426-10.963 5.081-.972 9.987 2.349 10.963 7.426 8.767 45.59-3.967 84.185-16.194 108.535-1.645 3.273-4.947 5.163-8.375 5.163z" fill="#cc1b5b"/><path d="m47.073 411.417 20.123 46.824-57.834 28.824z" fill="#2ba5f7"/><path d="m47.073 411.417 40.433-81.103 41.706 97.019-62.016 30.908z" fill="#f7b239"/><path d="m127.939 249.186 63.302 147.226-62.029 30.921-41.706-97.019z" fill="#2ba5f7"/><path d="m279.41 352.471-88.169 43.941-63.302-147.226 16.029-32.157z" fill="#f7b239"/><path d="m303.03 362.852-169.45-169.45c-3.656-3.656-9.585-3.656-13.24 0-3.656 3.656-3.656 9.585 0 13.24l12.242 12.242-131.599 264.004c-1.795 3.603-1.087 7.951 1.759 10.797 1.798 1.798 4.194 2.743 6.624 2.743 1.417 0 2.846-.321 4.173-.984l57.834-28.824 206.18-102.764 12.236 12.236c1.828 1.828 4.224 2.743 6.62 2.743s4.792-.914 6.62-2.743c3.658-3.655 3.658-9.583.001-13.24zm-205.211-32.255 29.494-59.168 51.834 120.553-45.245 22.551zm19.297 92.302-45.23 22.543-14.498-33.736 29.488-59.155zm-70.673 10.764 8.657 20.145-24.881 12.401zm149.488-50.047-57.676-134.14 8.289-16.629 117.047 117.047z"/></svg>